<svg version="1.1" id="Layer_1" xmlns="http://www.w3.org/2000/svg" xmlns:xlink="http://www.w3.org/1999/xlink" x="0px" y="0px"
	 width="60px" height="60px" viewBox="-7.5 -7.5 60 60" enable-background="new -7.5 -7.5 60 60" xml:space="preserve">
<g>
	<path fill="#1D1D1B" d="M-3.09-7.714v18.063h15.053V-7.714H-3.09z M8.148,7.338H6.161L5.003,2.876L3.879,7.338H1.893L0.066,0.125
		h1.879l0.994,4.84l1.212-4.84h1.797l1.148,4.842l1.048-4.842h1.831L8.148,7.338z"/>
	<path fill="#1D1D1B" d="M14.972-7.714v18.063h15.054V-7.714H14.972z M23.609,1.5h-3.076v1.264h2.833V4.14h-2.833v1.822h3.076v1.376
		H18.73V0.125h4.879V1.5z"/>
	<path fill="#1D1D1B" d="M39.476,2.962c0.124-0.005,0.253-0.039,0.386-0.1c0.146-0.068,0.245-0.162,0.301-0.281
		c0.054-0.12,0.083-0.259,0.083-0.417c0-0.117-0.029-0.235-0.09-0.359c-0.059-0.122-0.15-0.211-0.278-0.267
		c-0.119-0.051-0.261-0.081-0.424-0.083c-0.163-0.005-0.404-0.008-0.728-0.008H38.6v1.526h0.226
		C39.134,2.974,39.352,2.97,39.476,2.962z M40.157,4.285c-0.11-0.041-0.261-0.064-0.455-0.069c-0.191-0.004-0.447-0.007-0.771-0.007
		h-0.334v1.807h0.098c0.47,0,0.798-0.002,0.977-0.009C39.854,6,40.037,5.956,40.225,5.876c0.166-0.071,0.287-0.175,0.361-0.313
		C40.663,5.426,40.7,5.27,40.7,5.095c0-0.223-0.045-0.396-0.137-0.524C40.475,4.445,40.338,4.352,40.157,4.285z M33.036-7.714
		v18.063H48.09V-7.714H33.036z M42.36,6.074c-0.137,0.271-0.318,0.496-0.547,0.673c-0.271,0.213-0.569,0.364-0.893,0.454
		c-0.327,0.091-0.74,0.136-1.239,0.136h-2.888V0.125h2.549c0.53,0,0.933,0.021,1.205,0.061c0.274,0.04,0.528,0.125,0.767,0.252
		c0.261,0.14,0.453,0.326,0.582,0.558c0.127,0.232,0.193,0.501,0.193,0.806c0,0.352-0.09,0.665-0.265,0.939
		c-0.18,0.274-0.421,0.476-0.733,0.606v0.038c0.446,0.094,0.804,0.285,1.071,0.576c0.269,0.289,0.401,0.679,0.401,1.17
		C42.564,5.487,42.498,5.804,42.36,6.074z"/>
	<path fill="#1D1D1B" d="M-3.09,13.359v18.063h15.053V13.359H-3.09z M6.608,25.801c0,0.889-0.254,1.573-0.764,2.047
		c-0.509,0.477-1.261,0.713-2.259,0.713c-0.971,0-1.714-0.23-2.237-0.699c-0.522-0.469-0.781-1.154-0.781-2.056v-4.607h1.812v4.5
		c0,0.502,0.092,0.875,0.284,1.121c0.188,0.246,0.496,0.368,0.923,0.368c0.417,0,0.722-0.118,0.918-0.354
		c0.196-0.236,0.293-0.613,0.293-1.135v-4.5h1.814v4.603H6.608z"/>
	<path fill="#1D1D1B" d="M14.972,13.359v18.063h15.054V13.359H14.972z M26.101,28.412h-1.803v-4.783l-1.314,3.089h-1.235
		l-1.314-3.089v4.783h-1.706v-7.214h2.088l1.599,3.561l1.594-3.561h2.089v7.214H26.101z"/>
	<path fill="#1D1D1B" d="M33.036,13.359v18.063H48.09V13.359H33.036z M41.675,22.574h-3.078v1.265h2.835v1.376h-2.835v1.823h3.078
		v1.373h-4.881v-7.215h4.881V22.574z"/>
	<path fill="#1D1D1B" d="M-3.09,34.435V52.5h15.053V34.435H-3.09z M6.849,49.486H5.105l-2.781-5.031v5.031H0.667v-7.213h2.225
		l2.301,4.131v-4.131h1.656V49.486z"/>
	<path fill="#1D1D1B" d="M14.972,34.435V52.5h15.054V34.435H14.972z M23.83,43.531h-1.037v4.695h1.037v1.26h-3.884v-1.26h1.037
		v-4.695h-1.037v-1.261h3.884V43.531z"/>
	<path fill="#1D1D1B" d="M38.685,46.709h1.473l-0.735-2.382L38.685,46.709z M33.036,34.435V52.5H48.09V34.435H33.036z
		 M41.005,49.486l-0.449-1.472h-2.269l-0.452,1.472h-1.816l2.438-7.213h1.976l2.438,7.213H41.005z"/>
</g>
</svg>
